<svg xmlns="http://www.w3.org/2000/svg" xmlns:xlink="http://www.w3.org/1999/xlink" id="Layer_1" x="0px" y="0px" width="174.816px" height="173.5px" viewBox="0 0 174.816 173.5" xml:space="preserve"><g>	<path fill="#B7D06A" d="M172.803,157.981c0,7.111-5.766,12.875-12.873,12.875H14.886c-7.109,0-12.873-5.764-12.873-12.875V48.999  c0-7.11,5.764-12.875,12.873-12.875H159.93c7.107,0,12.873,5.765,12.873,12.875V157.981z"></path>	<g>		<path fill="#656464" d="M79.912,83.603h-5.104v2.047h4.686v1.677h-4.686v2.479h5.34v1.733h-7.31v-9.646h7.074V83.603z"></path>		<path fill="#656464" d="M84.393,87.2c0.348-0.043,0.596-0.098,0.745-0.163c0.269-0.113,0.402-0.29,0.402-0.53   c0-0.292-0.104-0.494-0.309-0.605c-0.206-0.11-0.508-0.166-0.905-0.166c-0.447,0-0.763,0.108-0.949,0.326   c-0.133,0.162-0.221,0.381-0.265,0.655h-1.8c0.039-0.624,0.215-1.137,0.525-1.538c0.495-0.628,1.346-0.941,2.551-0.941   c0.784,0,1.48,0.154,2.09,0.465c0.608,0.311,0.913,0.895,0.913,1.754v3.271c0,0.227,0.005,0.502,0.014,0.823   c0.013,0.245,0.05,0.41,0.11,0.498c0.062,0.087,0.153,0.159,0.275,0.216v0.274h-2.028c-0.057-0.144-0.097-0.279-0.118-0.405   c-0.021-0.127-0.039-0.271-0.053-0.432c-0.259,0.277-0.557,0.517-0.895,0.713c-0.404,0.23-0.86,0.348-1.369,0.348   c-0.649,0-1.187-0.186-1.609-0.554c-0.424-0.369-0.636-0.892-0.636-1.567c0-0.877,0.341-1.512,1.022-1.904   c0.373-0.213,0.923-0.365,1.647-0.457L84.393,87.2z M85.534,88.071c-0.119,0.074-0.24,0.134-0.361,0.18   c-0.122,0.046-0.289,0.088-0.501,0.128l-0.425,0.078c-0.397,0.069-0.684,0.155-0.857,0.255c-0.293,0.171-0.44,0.436-0.44,0.792   c0,0.317,0.09,0.55,0.27,0.69c0.179,0.142,0.397,0.213,0.654,0.213c0.407,0,0.783-0.118,1.126-0.354   c0.344-0.236,0.521-0.666,0.535-1.289L85.534,88.071L85.534,88.071z"></path>		<path fill="#656464" d="M90.467,89.263c0.04,0.332,0.125,0.566,0.257,0.707c0.231,0.248,0.662,0.372,1.288,0.372   c0.367,0,0.661-0.055,0.878-0.163c0.218-0.109,0.326-0.273,0.326-0.49c0-0.211-0.089-0.369-0.263-0.479   c-0.176-0.109-0.826-0.297-1.951-0.563c-0.812-0.201-1.383-0.451-1.713-0.752c-0.332-0.297-0.498-0.726-0.498-1.283   c0-0.658,0.26-1.225,0.776-1.698c0.519-0.474,1.248-0.71,2.188-0.71c0.892,0,1.619,0.178,2.181,0.533s0.884,0.97,0.967,1.843   H93.04c-0.025-0.24-0.095-0.431-0.203-0.569c-0.205-0.253-0.557-0.38-1.051-0.38c-0.406,0-0.695,0.063-0.869,0.19   c-0.172,0.125-0.258,0.273-0.258,0.443c0,0.215,0.092,0.369,0.274,0.465c0.185,0.102,0.832,0.272,1.946,0.518   c0.744,0.175,1.301,0.438,1.672,0.792c0.365,0.358,0.55,0.806,0.55,1.342c0,0.707-0.265,1.283-0.791,1.729   c-0.526,0.447-1.341,0.672-2.442,0.672c-1.123,0-1.953-0.236-2.488-0.711c-0.534-0.473-0.803-1.075-0.803-1.809H90.467   L90.467,89.263z"></path>		<path fill="#656464" d="M96.756,92.907l0.236,0.013c0.183,0.009,0.356,0.002,0.522-0.021c0.165-0.021,0.306-0.071,0.419-0.149   c0.107-0.074,0.21-0.229,0.305-0.465c0.094-0.236,0.135-0.38,0.12-0.433l-2.62-7.447h2.074l1.557,5.263l1.474-5.263h1.983   l-2.445,7.017c-0.473,1.353-0.848,2.19-1.122,2.517c-0.275,0.326-0.825,0.486-1.651,0.486c-0.165,0-0.299-0.001-0.398-0.003   c-0.101-0.002-0.252-0.01-0.452-0.022L96.756,92.907L96.756,92.907z"></path>	</g>	<g>		<g>			<path fill="#5C2C80" d="M48.09,98.294c1.17,0.385,2.117,1.091,2.842,2.116c0.582,0.829,0.978,1.728,1.189,2.692    s0.317,1.887,0.317,2.762c0,2.218-0.445,4.097-1.337,5.636c-1.208,2.073-3.072,3.11-5.594,3.11h-7.191v-16.68h7.191    C46.542,97.946,47.403,98.067,48.09,98.294z M41.7,100.829v10.886h3.219c1.647,0,2.796-0.812,3.445-2.433    c0.355-0.891,0.533-1.95,0.533-3.182c0-1.697-0.267-3-0.799-3.908c-0.533-0.909-1.593-1.363-3.18-1.363H41.7z"></path>			<path fill="#5C2C80" d="M65.079,113.103c-1.041,1.285-2.621,1.928-4.741,1.928c-2.12,0-3.7-0.643-4.741-1.928    s-1.562-2.832-1.562-4.642c0-1.778,0.521-3.319,1.562-4.624s2.621-1.956,4.741-1.956c2.12,0,3.7,0.651,4.741,1.956    s1.562,2.846,1.562,4.624C66.64,110.271,66.12,111.817,65.079,113.103z M62.498,111.319c0.506-0.67,0.759-1.623,0.759-2.858    s-0.253-2.187-0.759-2.853c-0.505-0.668-1.229-1-2.173-1c-0.942,0-1.669,0.332-2.178,1c-0.51,0.666-0.764,1.617-0.764,2.853    s0.254,2.188,0.764,2.858c0.509,0.67,1.235,1.007,2.178,1.007C61.269,112.326,61.994,111.989,62.498,111.319z"></path>			<path fill="#5C2C80" d="M79.235,113.103c-1.041,1.285-2.621,1.928-4.741,1.928s-3.7-0.643-4.741-1.928s-1.562-2.832-1.562-4.642    c0-1.778,0.521-3.319,1.562-4.624s2.621-1.956,4.741-1.956s3.7,0.651,4.741,1.956c1.041,1.305,1.563,2.846,1.563,4.624    C80.796,110.271,80.276,111.817,79.235,113.103z M76.655,111.319c0.506-0.67,0.759-1.623,0.759-2.858s-0.253-2.187-0.759-2.853    c-0.505-0.668-1.229-1-2.173-1c-0.942,0-1.669,0.332-2.178,1c-0.51,0.666-0.764,1.617-0.764,2.853s0.254,2.188,0.764,2.858    c0.509,0.67,1.235,1.007,2.178,1.007C75.425,112.326,76.15,111.989,76.655,111.319z"></path>			<path fill="#5C2C80" d="M89.956,101.987c0.043,0.005,0.135,0.011,0.277,0.019v3.304c-0.203-0.021-0.385-0.037-0.543-0.045    s-0.287-0.012-0.385-0.012c-1.298,0-2.169,0.423-2.614,1.268c-0.249,0.477-0.373,1.207-0.373,2.195v5.896H83.07v-12.334h3.078    v2.15c0.498-0.822,0.932-1.386,1.302-1.688c0.604-0.506,1.388-0.758,2.354-0.758C89.866,101.983,89.915,101.985,89.956,101.987z"></path>			<path fill="#5C2C80" d="M94.624,110.674c0.068,0.573,0.217,0.979,0.443,1.222c0.401,0.432,1.145,0.646,2.229,0.646    c0.638,0,1.144-0.096,1.519-0.283c0.376-0.188,0.563-0.472,0.563-0.849c0-0.362-0.151-0.638-0.454-0.826    c-0.302-0.188-1.427-0.513-3.373-0.974c-1.402-0.348-2.39-0.78-2.964-1.301c-0.572-0.514-0.858-1.252-0.858-2.219    c0-1.139,0.447-2.117,1.345-2.938c0.896-0.817,2.155-1.228,3.78-1.228c1.542,0,2.8,0.308,3.771,0.923    c0.973,0.614,1.529,1.676,1.674,3.186h-3.225c-0.047-0.415-0.164-0.743-0.353-0.984c-0.356-0.438-0.961-0.656-1.815-0.656    c-0.703,0-1.205,0.109-1.504,0.328s-0.447,0.475-0.447,0.771c0,0.368,0.158,0.638,0.477,0.803    c0.316,0.175,1.439,0.472,3.367,0.896c1.285,0.302,2.248,0.758,2.89,1.369c0.634,0.617,0.95,1.392,0.95,2.318    c0,1.223-0.456,2.221-1.366,2.993c-0.911,0.772-2.319,1.159-4.224,1.159c-1.943,0-3.377-0.408-4.303-1.227    c-0.928-0.818-1.391-1.861-1.391-3.13H94.624L94.624,110.674z"></path>			<path fill="#5C2C80" d="M103.745,104.688v-2.297h1.722v-3.44h3.189v3.44h2.003v2.297h-2.003v6.518    c0,0.506,0.064,0.82,0.192,0.945c0.129,0.123,0.521,0.187,1.177,0.187c0.1,0,0.202-0.002,0.313-0.006    c0.108-0.003,0.217-0.009,0.321-0.017v2.41l-1.526,0.057c-1.524,0.053-2.565-0.211-3.123-0.793    c-0.362-0.368-0.543-0.938-0.543-1.709v-7.592H103.745z"></path>			<path fill="#5C2C80" d="M120.767,102.526c0.86,0.386,1.571,0.994,2.132,1.824c0.505,0.733,0.833,1.584,0.982,2.551    c0.087,0.566,0.122,1.383,0.105,2.447h-8.982c0.05,1.237,0.479,2.104,1.29,2.604c0.491,0.311,1.085,0.464,1.777,0.464    c0.734,0,1.331-0.188,1.791-0.565c0.25-0.203,0.473-0.486,0.663-0.849h3.293c-0.087,0.731-0.484,1.476-1.194,2.229    c-1.105,1.199-2.652,1.799-4.642,1.799c-1.642,0-3.09-0.506-4.345-1.518c-1.255-1.013-1.882-2.658-1.882-4.939    c0-2.137,0.565-3.773,1.699-4.914c1.132-1.141,2.603-1.711,4.409-1.711C118.94,101.948,119.907,102.142,120.767,102.526z     M115.943,105.313c-0.456,0.471-0.742,1.105-0.858,1.91h5.557c-0.059-0.856-0.345-1.507-0.859-1.949    c-0.514-0.443-1.15-0.666-1.913-0.666C117.041,104.608,116.399,104.845,115.943,105.313z"></path>			<path fill="#5C2C80" d="M135.992,103.603c1.007,1.063,1.51,2.625,1.51,4.685c0,2.173-0.492,3.827-1.476,4.968    c-0.982,1.139-2.25,1.708-3.799,1.708c-0.987,0-1.807-0.245-2.46-0.735c-0.356-0.271-0.706-0.666-1.048-1.188v6.427h-3.191    v-17.188h3.09v1.822c0.35-0.535,0.722-0.957,1.116-1.268c0.722-0.551,1.579-0.826,2.573-0.826    C133.757,102.006,134.985,102.537,135.992,103.603z M133.516,105.921c-0.438-0.73-1.148-1.098-2.132-1.098    c-1.183,0-1.993,0.555-2.437,1.662c-0.229,0.59-0.343,1.336-0.343,2.242c0,1.434,0.385,2.439,1.154,3.021    c0.457,0.339,0.998,0.509,1.623,0.509c0.907,0,1.599-0.347,2.075-1.041c0.476-0.693,0.715-1.617,0.715-2.771    C134.173,107.494,133.954,106.651,133.516,105.921z"></path>			<path fill="#5C2C80" d="M53.856,122.112c1.17,0.386,2.117,1.091,2.842,2.115c0.582,0.83,0.978,1.729,1.189,2.693    c0.212,0.967,0.317,1.887,0.317,2.762c0,2.219-0.445,4.096-1.337,5.635c-1.208,2.076-3.072,3.113-5.594,3.113h-7.191V121.75    h7.191C52.308,121.767,53.168,121.888,53.856,122.112z M47.465,124.647v10.885h3.219c1.647,0,2.796-0.811,3.445-2.432    c0.355-0.891,0.533-1.951,0.533-3.181c0-1.696-0.267-3-0.799-3.909c-0.533-0.908-1.593-1.363-3.18-1.363H47.465z"></path>			<path fill="#5C2C80" d="M68.595,126.347c0.86,0.385,1.571,0.993,2.132,1.824c0.505,0.732,0.833,1.583,0.982,2.551    c0.087,0.565,0.122,1.383,0.106,2.447h-8.983c0.05,1.236,0.48,2.104,1.29,2.604c0.492,0.31,1.085,0.463,1.778,0.463    c0.734,0,1.331-0.188,1.791-0.565c0.25-0.203,0.472-0.485,0.663-0.849h3.293c-0.087,0.732-0.485,1.476-1.195,2.229    c-1.105,1.199-2.652,1.799-4.641,1.799c-1.642,0-3.09-0.506-4.345-1.518c-1.255-1.012-1.882-2.657-1.882-4.938    c0-2.138,0.566-3.775,1.699-4.916c1.132-1.141,2.603-1.711,4.41-1.711C66.768,125.769,67.735,125.961,68.595,126.347z     M63.771,129.132c-0.456,0.471-0.742,1.105-0.859,1.909h5.557c-0.059-0.856-0.345-1.506-0.859-1.949    c-0.514-0.442-1.151-0.665-1.913-0.665C64.869,128.427,64.227,128.662,63.771,129.132z"></path>			<path fill="#5C2C80" d="M76.74,138.431h-3.225v-16.68h3.225V138.431z"></path>			<path fill="#5C2C80" d="M83.201,124.625H79.93v-2.976h3.271V124.625z M79.93,126.097h3.271v12.334H79.93V126.097z"></path>			<path fill="#5C2C80" d="M93.922,126.097h3.463l-4.454,12.334h-3.399l-4.425-12.334h3.621l2.569,9.098L93.922,126.097z"></path>			<path fill="#5C2C80" d="M107.25,126.347c0.859,0.385,1.57,0.993,2.132,1.824c0.505,0.732,0.833,1.583,0.981,2.551    c0.087,0.565,0.122,1.383,0.106,2.447h-8.983c0.051,1.236,0.48,2.104,1.29,2.604c0.492,0.31,1.085,0.463,1.778,0.463    c0.734,0,1.331-0.188,1.791-0.565c0.25-0.203,0.472-0.485,0.663-0.849h3.293c-0.087,0.732-0.485,1.476-1.195,2.229    c-1.104,1.199-2.651,1.799-4.641,1.799c-1.642,0-3.091-0.506-4.345-1.518c-1.256-1.012-1.883-2.657-1.883-4.938    c0-2.138,0.566-3.775,1.699-4.916s2.604-1.711,4.41-1.711C105.423,125.769,106.39,125.961,107.25,126.347z M102.426,129.132    c-0.456,0.471-0.742,1.105-0.859,1.909h5.558c-0.06-0.856-0.346-1.506-0.859-1.949c-0.514-0.442-1.151-0.665-1.913-0.665    C103.524,128.427,102.882,128.662,102.426,129.132z"></path>			<path fill="#5C2C80" d="M118.954,125.808c0.043,0.004,0.135,0.01,0.277,0.018v3.305c-0.203-0.021-0.385-0.038-0.543-0.045    c-0.158-0.008-0.287-0.012-0.385-0.012c-1.298,0-2.169,0.423-2.614,1.268c-0.249,0.475-0.373,1.207-0.373,2.195v5.896h-3.248    v-12.336h3.078v2.15c0.498-0.822,0.933-1.385,1.302-1.686c0.604-0.506,1.389-0.76,2.354-0.76    C118.862,125.802,118.913,125.804,118.954,125.808z"></path>			<path fill="#5C2C80" d="M121.607,140.796l0.408,0.021c0.316,0.016,0.618,0.004,0.905-0.033c0.286-0.038,0.526-0.125,0.724-0.262    c0.188-0.127,0.364-0.396,0.526-0.803c0.162-0.406,0.23-0.656,0.209-0.746l-4.531-12.879h3.587l2.693,9.1l2.546-9.1h3.429    l-4.229,12.131c-0.817,2.34-1.465,3.789-1.939,4.353c-0.477,0.562-1.428,0.843-2.854,0.843c-0.286,0-0.518-0.002-0.69-0.006    s-0.435-0.018-0.782-0.04L121.607,140.796L121.607,140.796z"></path>		</g>	</g>	<circle fill="#FFFFFF" cx="87.409" cy="35.956" r="33.312"></circle>	<g>		<g id="he2x83_4_">			<g>				<path fill="#5C2C80" d="M91.532,25.397c-3.384,0.541-3.872,1.135-3.88,4.527c0,0.5,0,1.003,0,1.504     c0.003,3.403,0.43,3.935,3.79,4.647c0,2.172,0,4.358,0,6.659c-6.571,0-13.047,0-19.751,0c0-1.839,0-3.608,0-5.377     c0.004-6.23-0.005-12.465,0.009-18.695c0.005-2.596,0.897-3.571,3.417-3.599c4.368-0.042,8.737-0.045,13.106,0.006     c2.271,0.024,3.268,1.065,3.303,3.301C91.561,20.723,91.532,23.077,91.532,25.397z"></path>				<path fill="#5C2C80" d="M81.837,52.992c-3.507,0.001-7.012-0.009-10.517,0.005c-1.538,0.007-2.841-0.458-2.831-2.186     c0.009-1.777,1.386-2.069,2.889-2.065c6.864,0.014,13.729-0.019,20.591-0.002c1.473,0.002,3.023,0.071,3.023,2.136     c-0.002,1.725-1.226,2.099-2.636,2.104C88.85,53.004,85.342,52.992,81.837,52.992z"></path>				<path fill="#5C2C80" d="M100.993,29.902c1.441,0,2.635,0,4.271,0c0,2.846-0.082,5.662,0.02,8.475     c0.109,2.967,0.369,5.932,0.601,8.895c0.078,0.995,0.459,2,0.352,2.963c-0.078,0.729-0.717,1.399-1.104,2.096     c-0.523-0.546-1.365-1.021-1.51-1.655c-0.451-1.939-0.621-3.946-0.927-5.92c-0.258-1.65-0.141-3.391-1.616-4.693     c-0.416-0.37-0.396-1.328-0.431-2.022c-0.065-1.27-0.021-2.544-0.021-3.748c-1.957,0.6-3.748,1.24-5.59,1.654     c-0.502,0.113-1.158-0.453-1.746-0.709c0.507-0.362,0.97-0.938,1.523-1.05C97.543,33.643,99.852,32.585,100.993,29.902z"></path>				<path fill="#5C2C80" d="M92.782,47.088c-7.522,0-14.872,0-22.231,0c-0.393-2.034,0.661-2.829,2.331-2.845     c5.725-0.058,11.454-0.047,17.183-0.005C91.711,44.25,92.729,45.077,92.782,47.088z"></path>				<path fill="#5C2C80" d="M93.366,26.979c0.428,0,0.859,0.002,1.285,0c1.377-0.009,2.781-0.206,2.898,1.877     c0.174,2.994-0.029,3.29-2.629,3.787c-0.928,0.177-1.752,0.819-2.668,1.118c-0.75,0.245-1.633,0.542-2.324,0.345     c-0.416-0.118-0.631-1.111-0.846-1.743c-0.111-0.319-0.021-0.708-0.023-1.064C89.045,26.978,89.045,26.978,93.366,26.979z"></path>				<path fill="#5C2C80" d="M102.95,28.653c-1.703-0.033-2.998-1.474-2.92-3.247c0.076-1.738,1.283-2.854,3.053-2.822     c1.664,0.029,2.978,1.328,2.994,2.959C106.096,27.219,104.618,28.687,102.95,28.653z"></path>				<path fill="#5C2C80" d="M99.364,40.409c0.553,0.604,1.115,1.215,1.68,1.828c-0.196-0.025-0.393-0.054-0.586-0.078     c-0.405,2.44-0.729,4.896-1.26,7.309c-0.145,0.661-0.912,1.187-1.393,1.774c-0.461-0.533-1.281-1.035-1.328-1.604     C96.182,46.22,96.514,42.928,99.364,40.409z"></path>			</g>		</g>		<path fill="#5C2C80" d="M103.62,50.675c0,0,0.021,1.563,1.804,1.655c0,0,1.203,0.144,0.832-2.457c-0.371-2.602-1.89-2-1.89-2   L103.62,50.675z"></path>		<path fill="#5C2C80" d="M99.364,40.409c0,0,1.916-0.433,1.68,2.327c0,0-0.995,0.844-1.409,4.506c0,0-0.3,0.828,0.141,2.346   c0,0-0.551,3.243-2.528,1.654c0,0-0.832-0.642-0.83-2.504c0.002-1.861,1.18-5.744,1.18-5.744"></path>	</g></g></svg>