<svg xmlns="http://www.w3.org/2000/svg" xmlns:xlink="http://www.w3.org/1999/xlink" id="Layer_1" x="0px" y="0px" width="174.816px" height="173.5px" viewBox="0 0 174.816 173.5" xml:space="preserve"><g>	<path fill="#B7D06A" d="M172.805,157.981c0,7.111-5.765,12.875-12.877,12.875H14.889c-7.111,0-12.877-5.764-12.877-12.875V48.999  c0-7.109,5.766-12.875,12.877-12.875h145.039c7.112,0,12.877,5.766,12.877,12.875V157.981L172.805,157.981z"></path>	<g>		<g>			<path fill="#656464" d="M83.745,84.485c-0.151-0.658-0.524-1.118-1.119-1.381c-0.331-0.145-0.699-0.216-1.104-0.216    c-0.776,0-1.415,0.293-1.914,0.879c-0.5,0.586-0.75,1.466-0.75,2.642c0,1.185,0.271,2.021,0.812,2.515s1.156,0.738,1.847,0.738    c0.676,0,1.229-0.194,1.662-0.582c0.432-0.388,0.697-0.896,0.799-1.524h-2.231v-1.609h4.019v5.176h-1.335l-0.203-1.204    c-0.389,0.456-0.737,0.776-1.047,0.965c-0.532,0.325-1.188,0.488-1.963,0.488c-1.278,0-2.325-0.442-3.143-1.328    c-0.851-0.89-1.274-2.104-1.274-3.647c0-1.563,0.43-2.813,1.288-3.754c0.859-0.942,1.996-1.413,3.409-1.413    c1.227,0,2.211,0.312,2.954,0.933c0.744,0.622,1.171,1.397,1.28,2.326h-1.985V84.485z"></path>			<path fill="#656464" d="M92.183,84.133c0.497,0.224,0.907,0.574,1.231,1.057c0.292,0.424,0.481,0.915,0.568,1.475    c0.05,0.327,0.07,0.799,0.062,1.415H88.85c0.028,0.716,0.276,1.218,0.746,1.506c0.284,0.18,0.628,0.268,1.027,0.268    c0.426,0,0.771-0.107,1.035-0.326c0.146-0.117,0.273-0.281,0.384-0.49h1.904c-0.05,0.423-0.28,0.854-0.691,1.289    c-0.639,0.693-1.532,1.039-2.684,1.039c-0.949,0-1.786-0.291-2.512-0.877c-0.728-0.586-1.089-1.536-1.089-2.855    c0-1.234,0.326-2.183,0.981-2.842c0.655-0.66,1.506-0.989,2.551-0.989C91.126,83.799,91.685,83.91,92.183,84.133z M89.393,85.744    c-0.265,0.271-0.431,0.64-0.497,1.104h3.213c-0.033-0.495-0.199-0.87-0.496-1.127c-0.298-0.257-0.667-0.385-1.106-0.385    C90.027,85.337,89.656,85.474,89.393,85.744z"></path>			<path fill="#656464" d="M94.255,85.382v-1.327h0.994v-1.989h1.847v1.989h1.157v1.327h-1.157v3.77c0,0.293,0.037,0.476,0.11,0.547    c0.074,0.072,0.302,0.107,0.682,0.107c0.057,0,0.115,0,0.18-0.002c0.063-0.003,0.125-0.007,0.187-0.011v1.394L97.37,91.22    c-0.881,0.03-1.482-0.121-1.806-0.457c-0.21-0.215-0.314-0.544-0.314-0.988v-4.393H94.255z"></path>		</g>	</g>	<g>		<path fill="#5C2C80" d="M45.509,97.937h5.015v16.68h-3.247v-11.281c0-0.324,0.004-0.779,0.011-1.363   c0.008-0.584,0.012-1.035,0.012-1.353l-3.16,13.997h-3.388l-3.139-13.997c0,0.315,0.004,0.769,0.012,1.353   c0.007,0.584,0.012,1.039,0.012,1.363v11.281h-3.247v-16.68h5.07l3.036,13.114L45.509,97.937z"></path>		<path fill="#5C2C80" d="M58.374,107.112c0.601-0.074,1.029-0.17,1.288-0.282c0.463-0.196,0.695-0.502,0.695-0.917   c0-0.505-0.178-0.854-0.534-1.046c-0.354-0.192-0.877-0.289-1.564-0.289c-0.772,0-1.319,0.188-1.641,0.565   c-0.229,0.278-0.383,0.656-0.459,1.131h-3.112c0.068-1.078,0.371-1.965,0.909-2.658c0.856-1.086,2.326-1.629,4.41-1.629   c1.355,0,2.562,0.268,3.613,0.803c1.054,0.536,1.58,1.547,1.58,3.033v5.658c0,0.392,0.008,0.867,0.021,1.426   c0.022,0.422,0.087,0.709,0.192,0.859c0.104,0.15,0.264,0.274,0.476,0.373v0.475h-3.508c-0.099-0.248-0.166-0.481-0.204-0.7   c-0.038-0.22-0.066-0.468-0.091-0.747c-0.447,0.482-0.964,0.895-1.548,1.232C58.2,114.799,57.411,115,56.531,115   c-1.123,0-2.051-0.317-2.783-0.956c-0.731-0.639-1.098-1.541-1.098-2.71c0-1.517,0.589-2.614,1.767-3.293   c0.646-0.369,1.597-0.634,2.851-0.792L58.374,107.112z M60.346,108.618c-0.207,0.128-0.415,0.23-0.625,0.313   c-0.211,0.078-0.499,0.151-0.866,0.221l-0.734,0.136c-0.688,0.12-1.183,0.269-1.481,0.44c-0.509,0.295-0.763,0.75-0.763,1.369   c0,0.551,0.155,0.948,0.467,1.193c0.31,0.245,0.688,0.367,1.132,0.367c0.704,0,1.354-0.203,1.946-0.61   c0.594-0.407,0.901-1.149,0.926-2.229L60.346,108.618L60.346,108.618z"></path>		<path fill="#5C2C80" d="M73.229,101.992c0.042,0.004,0.134,0.01,0.276,0.018v3.304c-0.202-0.021-0.385-0.037-0.543-0.045   c-0.157-0.008-0.286-0.012-0.385-0.012c-1.298,0-2.169,0.424-2.614,1.268c-0.249,0.477-0.373,1.207-0.373,2.195v5.896h-3.247   V102.28h3.077v2.15c0.498-0.822,0.933-1.385,1.303-1.687c0.604-0.505,1.388-0.759,2.354-0.759   C73.137,101.987,73.188,101.989,73.229,101.992z"></path>		<path fill="#5C2C80" d="M75.361,97.992h3.169v8.997l4.067-4.651h4.011l-4.421,4.595l4.592,7.684h-3.925l-2.988-5.27l-1.336,1.389   v3.881h-3.169V97.992z"></path>		<path fill="#5C2C80" d="M96.322,102.53c0.86,0.386,1.571,0.994,2.132,1.824c0.505,0.733,0.833,1.584,0.982,2.551   c0.087,0.566,0.122,1.383,0.105,2.447H90.56c0.05,1.237,0.479,2.104,1.29,2.604c0.492,0.311,1.085,0.464,1.777,0.464   c0.734,0,1.331-0.188,1.791-0.565c0.25-0.203,0.473-0.485,0.663-0.849h3.293c-0.087,0.731-0.484,1.476-1.194,2.229   c-1.105,1.199-2.652,1.799-4.642,1.799c-1.642,0-3.09-0.506-4.345-1.518c-1.255-1.013-1.882-2.658-1.882-4.938   c0-2.138,0.565-3.774,1.699-4.915c1.132-1.141,2.603-1.71,4.409-1.71C94.495,101.953,95.462,102.146,96.322,102.53z    M91.498,105.317c-0.456,0.47-0.742,1.104-0.858,1.908h5.557c-0.059-0.855-0.345-1.506-0.859-1.949   c-0.514-0.442-1.15-0.664-1.912-0.664C92.596,104.612,91.954,104.849,91.498,105.317z"></path>		<path fill="#5C2C80" d="M99.906,104.69v-2.297h1.721v-3.439h3.19v3.439h2.003v2.297h-2.003v6.519c0,0.506,0.063,0.821,0.192,0.944   c0.129,0.125,0.521,0.188,1.177,0.188c0.099,0,0.202-0.002,0.312-0.006c0.109-0.003,0.218-0.009,0.322-0.018v2.41l-1.527,0.058   c-1.523,0.053-2.564-0.212-3.123-0.792c-0.361-0.369-0.543-0.939-0.543-1.709v-7.594H99.906z"></path>		<path fill="#5C2C80" d="M112.206,100.812h-3.271v-2.978h3.271V100.812z M108.936,102.28h3.271v12.334h-3.271V102.28z"></path>		<path fill="#5C2C80" d="M125.276,102.987c0.808,0.668,1.211,1.775,1.211,3.322v8.305h-3.304v-7.502   c0-0.648-0.086-1.146-0.259-1.493c-0.314-0.634-0.913-0.95-1.798-0.95c-1.086,0-1.83,0.464-2.234,1.393   c-0.21,0.489-0.314,1.115-0.314,1.879v6.676h-3.226v-12.313h3.123v1.801c0.413-0.635,0.805-1.092,1.172-1.371   c0.661-0.496,1.499-0.746,2.514-0.746C123.431,101.987,124.469,102.319,125.276,102.987z"></path>		<path fill="#5C2C80" d="M135.587,102.271c0.784,0.324,1.417,0.92,1.898,1.787v-1.775h3.146v11.699c0,1.592-0.269,2.791-0.804,3.6   c-0.921,1.388-2.686,2.082-5.296,2.082c-1.577,0-2.862-0.311-3.857-0.928c-0.996-0.618-1.548-1.543-1.652-2.772h3.508   c0.091,0.377,0.237,0.647,0.441,0.813c0.347,0.295,0.932,0.441,1.754,0.441c1.162,0,1.938-0.389,2.331-1.164   c0.257-0.498,0.385-1.336,0.385-2.514v-0.792c-0.31,0.528-0.642,0.925-0.996,1.188c-0.641,0.489-1.475,0.734-2.5,0.734   c-1.585,0-2.851-0.557-3.797-1.669c-0.947-1.112-1.42-2.619-1.42-4.521c0-1.834,0.456-3.375,1.367-4.623   c0.912-1.248,2.204-1.873,3.876-1.873C134.59,101.987,135.128,102.081,135.587,102.271z M136.686,111.112   c0.519-0.568,0.776-1.477,0.776-2.721c0-1.17-0.245-2.061-0.737-2.67c-0.491-0.611-1.15-0.918-1.979-0.918   c-1.127,0-1.903,0.532-2.332,1.596c-0.226,0.565-0.338,1.265-0.338,2.094c0,0.717,0.12,1.354,0.36,1.912   c0.436,1.041,1.217,1.563,2.344,1.563C135.532,111.968,136.167,111.683,136.686,111.112z"></path>		<path fill="#5C2C80" d="M47.276,133.285c0.107,0.763,0.319,1.332,0.636,1.709c0.577,0.687,1.567,1.03,2.969,1.03   c0.841,0,1.521-0.092,2.046-0.271c0.993-0.348,1.49-0.992,1.49-1.936c0-0.551-0.243-0.978-0.729-1.278   c-0.486-0.295-1.259-0.556-2.315-0.781l-1.806-0.396c-1.775-0.394-2.994-0.819-3.658-1.279c-1.124-0.77-1.687-1.973-1.687-3.609   c0-1.494,0.55-2.734,1.648-3.723c1.102-0.988,2.716-1.482,4.847-1.482c1.778,0,3.298,0.467,4.554,1.397   c1.257,0.933,1.915,2.282,1.977,4.058h-3.35c-0.063-1.005-0.511-1.718-1.347-2.14c-0.558-0.278-1.248-0.419-2.076-0.419   c-0.92,0-1.654,0.182-2.204,0.543c-0.549,0.361-0.823,0.868-0.823,1.518c0,0.596,0.271,1.041,0.813,1.334   c0.349,0.196,1.087,0.428,2.217,0.69l2.927,0.69c1.283,0.301,2.244,0.705,2.885,1.211c0.994,0.783,1.491,1.92,1.491,3.406   c0,1.522-0.589,2.789-1.767,3.795c-1.18,1.008-2.844,1.512-4.993,1.512c-2.195,0-3.923-0.496-5.182-1.488   c-1.259-0.991-1.888-2.355-1.888-4.091H47.276z"></path>		<path fill="#5C2C80" d="M63.175,126.101v7.435c0,0.702,0.083,1.229,0.247,1.585c0.292,0.626,0.866,0.938,1.724,0.938   c1.096,0,1.847-0.443,2.252-1.334c0.21-0.482,0.314-1.121,0.314-1.912v-6.711h3.271v12.334h-3.134v-1.742   c-0.03,0.037-0.105,0.15-0.227,0.34c-0.121,0.188-0.264,0.354-0.429,0.498c-0.505,0.451-0.991,0.762-1.462,0.928   s-1.021,0.249-1.653,0.249c-1.82,0-3.047-0.656-3.679-1.97c-0.354-0.725-0.53-1.791-0.53-3.202v-7.435H63.175z"></path>		<path fill="#5C2C80" d="M84.49,127.424c1.006,1.063,1.509,2.625,1.509,4.685c0,2.174-0.491,3.83-1.475,4.969   c-0.983,1.14-2.25,1.709-3.799,1.709c-0.987,0-1.808-0.245-2.46-0.735c-0.356-0.271-0.706-0.668-1.048-1.188v6.429h-3.191v-17.188   h3.09v1.821c0.349-0.534,0.721-0.958,1.116-1.269c0.721-0.551,1.579-0.825,2.573-0.825   C82.256,125.828,83.483,126.36,84.49,127.424z M82.015,129.744c-0.438-0.731-1.148-1.099-2.132-1.099   c-1.183,0-1.993,0.555-2.437,1.664c-0.229,0.588-0.343,1.334-0.343,2.239c0,1.435,0.385,2.44,1.154,3.021   c0.457,0.341,0.997,0.511,1.622,0.511c0.907,0,1.6-0.349,2.075-1.041c0.478-0.694,0.715-1.618,0.715-2.772   C82.672,131.315,82.453,130.476,82.015,129.744z"></path>		<path fill="#5C2C80" d="M98.646,127.424c1.006,1.063,1.509,2.625,1.509,4.685c0,2.174-0.492,3.83-1.475,4.969   c-0.983,1.14-2.25,1.709-3.8,1.709c-0.986,0-1.807-0.245-2.46-0.735c-0.355-0.271-0.706-0.668-1.048-1.188v6.429h-3.19v-17.188   h3.09v1.821c0.349-0.534,0.721-0.958,1.116-1.269c0.721-0.551,1.579-0.825,2.572-0.825   C96.412,125.828,97.64,126.36,98.646,127.424z M96.171,129.744c-0.438-0.731-1.147-1.099-2.132-1.099   c-1.182,0-1.993,0.555-2.436,1.664c-0.229,0.588-0.343,1.334-0.343,2.239c0,1.435,0.385,2.44,1.153,3.021   c0.457,0.341,0.998,0.511,1.623,0.511c0.907,0,1.6-0.349,2.075-1.041c0.478-0.694,0.715-1.618,0.715-2.772   C96.828,131.315,96.609,130.476,96.171,129.744z"></path>		<path fill="#5C2C80" d="M112.715,136.926c-1.04,1.285-2.62,1.927-4.74,1.927s-3.7-0.642-4.741-1.927   c-1.041-1.284-1.563-2.831-1.563-4.642c0-1.778,0.521-3.32,1.563-4.624s2.621-1.956,4.741-1.956s3.7,0.652,4.74,1.956   c1.041,1.304,1.563,2.846,1.563,4.624C114.277,134.095,113.756,135.642,112.715,136.926z M110.136,135.144   c0.506-0.67,0.759-1.623,0.759-2.858s-0.253-2.187-0.759-2.854c-0.506-0.666-1.229-1-2.174-1c-0.941,0-1.669,0.334-2.178,1   c-0.51,0.668-0.764,1.618-0.764,2.854c0,1.235,0.254,2.188,0.764,2.858c0.509,0.67,1.235,1.006,2.178,1.006   C108.906,136.147,109.631,135.813,110.136,135.144z"></path>		<path fill="#5C2C80" d="M123.438,125.812c0.042,0.004,0.134,0.01,0.277,0.018v3.305c-0.203-0.021-0.386-0.037-0.544-0.045   c-0.157-0.008-0.286-0.012-0.385-0.012c-1.298,0-2.169,0.423-2.614,1.268c-0.248,0.475-0.372,1.207-0.372,2.195v5.896h-3.248   v-12.336h3.077v2.15c0.498-0.822,0.933-1.384,1.303-1.686c0.604-0.506,1.388-0.76,2.354-0.76   C123.346,125.806,123.396,125.808,123.438,125.812z"></path>		<path fill="#5C2C80" d="M124.337,128.511v-2.298h1.722v-3.438h3.189v3.438h2.003v2.298h-2.003v6.518   c0,0.507,0.064,0.82,0.192,0.945c0.129,0.125,0.521,0.188,1.177,0.188c0.1,0,0.202-0.002,0.313-0.006   c0.109-0.004,0.217-0.01,0.321-0.018v2.41l-1.526,0.057c-1.524,0.053-2.565-0.211-3.123-0.793   c-0.362-0.369-0.543-0.938-0.543-1.707v-7.594H124.337z"></path>	</g>	<circle fill="#FFFFFF" cx="87.409" cy="35.957" r="33.313"></circle>	<g id="EpuQe6_4_">		<g>			<path fill="#5C2C80" d="M100.814,44.009c-4.56-1.119-8.949-1.818-13.437-1.669c-1.399,0.044-2.795,0.24-4.188,0.386    c-0.529,0.056-0.906,0.082-1.117-0.616c-1.24-4.084-2.545-8.147-3.865-12.342c5.688-2.707,10.306-6.75,14.492-11.601    C95.42,26.836,98.094,35.339,100.814,44.009z"></path>			<path fill="#5C2C80" d="M75.939,30.479c1.391,4.425,2.736,8.695,4.123,13.105c-2.445,0.736-4.805,1.671-7.25,2.122    c-3.586,0.663-6.89-1.638-7.705-5.026c-0.869-3.604,1.063-7.062,4.652-8.253C71.764,31.76,73.785,31.157,75.939,30.479z"></path>			<path fill="#5C2C80" d="M73.875,47.798c2.154-0.683,4.144-1.285,6.107-1.949c0.588-0.198,0.91-0.094,1.238,0.424    c0.729,1.151,1.438,2.33,2.303,3.375c0.688,0.832,1.627,1.456,2.393,2.229c0.343,0.346,0.746,0.834,0.738,1.25    c-0.006,0.353-0.508,0.863-0.895,1.006c-1.515,0.558-3.06,1.014-4.607,1.468c-0.875,0.259-1.688-0.006-2.215-0.72    C77.244,52.575,75.604,50.228,73.875,47.798z"></path>			<path fill="#5C2C80" d="M108.158,38.668c-0.873-0.471-1.688-0.908-2.481-1.335c2.436-7.779,1.229-11.604-5.203-16.473    c0.432-0.833,0.869-1.678,1.305-2.521C108.943,21.53,112.203,31.889,108.158,38.668z"></path>			<path fill="#5C2C80" d="M98.08,25.445c0.449-0.859,0.859-1.646,1.267-2.422c4.213,1.642,7.053,8.002,4.225,13.238    c-0.807-0.424-1.613-0.847-2.484-1.302C102.65,30.998,101.639,27.856,98.08,25.445z"></path>		</g>	</g></g></svg>