<svg xmlns="http://www.w3.org/2000/svg" xmlns:xlink="http://www.w3.org/1999/xlink" id="Layer_1" x="0px" y="0px" width="174.816px" height="173.5px" viewBox="0 0 174.816 173.5" xml:space="preserve"><g>	<path fill="#B8D16B" d="M172.802,157.981c0,7.111-5.763,12.875-12.872,12.875H14.891c-7.111,0-12.876-5.764-12.876-12.875V48.999  c0-7.109,5.765-12.875,12.876-12.875H159.93c7.109,0,12.872,5.766,12.872,12.875V157.981z"></path>	<g>		<path fill="#656464" d="M45.645,82.482h2.284l-3.227,6.028v3.616h-2.017v-3.616l-3.337-6.028h2.375l2.003,4.201L45.645,82.482z"></path>		<path fill="#656464" d="M53.89,91.256c-0.602,0.743-1.516,1.114-2.741,1.114c-1.227,0-2.14-0.371-2.741-1.114   c-0.603-0.743-0.903-1.638-0.903-2.685c0-1.028,0.302-1.92,0.903-2.674c0.603-0.754,1.516-1.131,2.741-1.131   c1.227,0,2.141,0.377,2.741,1.131c0.604,0.754,0.903,1.646,0.903,2.674C54.793,89.618,54.492,90.513,53.89,91.256z M52.397,90.226   c0.292-0.389,0.438-0.938,0.438-1.654c0-0.713-0.146-1.264-0.438-1.648c-0.293-0.386-0.712-0.577-1.257-0.577   s-0.965,0.191-1.26,0.577c-0.294,0.385-0.441,0.936-0.441,1.648c0,0.716,0.147,1.267,0.441,1.654   c0.295,0.387,0.715,0.582,1.26,0.582S52.104,90.612,52.397,90.226z"></path>		<path fill="#656464" d="M57.985,84.995v4.3c0,0.405,0.049,0.711,0.145,0.916c0.169,0.362,0.501,0.543,0.996,0.543   c0.634,0,1.067-0.258,1.303-0.772c0.121-0.278,0.182-0.646,0.182-1.104v-3.881h1.893v7.133h-1.813v-1.008   c-0.018,0.022-0.062,0.088-0.131,0.196c-0.068,0.108-0.151,0.205-0.248,0.287c-0.291,0.263-0.573,0.44-0.845,0.537   c-0.272,0.096-0.591,0.145-0.956,0.145c-1.053,0-1.762-0.381-2.127-1.139c-0.205-0.42-0.307-1.037-0.307-1.853v-4.3H57.985z"></path>		<path fill="#656464" d="M68.276,84.828c0.023,0.003,0.077,0.006,0.16,0.01v1.911c-0.118-0.013-0.223-0.021-0.313-0.025   c-0.093-0.004-0.166-0.008-0.224-0.008c-0.75,0-1.254,0.245-1.512,0.732c-0.144,0.275-0.216,0.699-0.216,1.271v3.408h-1.878   v-7.133h1.78v1.243c0.287-0.476,0.538-0.8,0.752-0.975c0.35-0.292,0.803-0.438,1.36-0.438   C68.224,84.825,68.253,84.826,68.276,84.828z"></path>		<path fill="#656464" d="M79.252,85.762c0.581,0.614,0.872,1.519,0.872,2.708c0,1.258-0.284,2.215-0.854,2.873   c-0.567,0.659-1.301,0.988-2.195,0.988c-0.571,0-1.047-0.143-1.424-0.426c-0.206-0.156-0.407-0.387-0.605-0.688v3.717h-1.845   v-9.939h1.785v1.054c0.202-0.31,0.417-0.554,0.646-0.732c0.417-0.318,0.913-0.479,1.488-0.479   C77.96,84.838,78.67,85.146,79.252,85.762z M77.819,87.104c-0.254-0.423-0.664-0.636-1.232-0.636c-0.684,0-1.152,0.32-1.408,0.963   c-0.132,0.34-0.198,0.771-0.198,1.295c0,0.83,0.224,1.412,0.668,1.748c0.265,0.195,0.577,0.293,0.938,0.293   c0.523,0,0.925-0.199,1.2-0.602c0.274-0.402,0.413-0.936,0.413-1.604C78.2,88.013,78.073,87.524,77.819,87.104z"></path>		<path fill="#656464" d="M86.565,85.035c0.357,0.152,0.652,0.386,0.884,0.7c0.194,0.267,0.313,0.541,0.357,0.822   c0.043,0.28,0.064,0.74,0.064,1.379v4.19h-1.904v-4.345c0-0.383-0.064-0.693-0.194-0.929c-0.169-0.332-0.488-0.498-0.962-0.498   c-0.489,0-0.859,0.165-1.112,0.494c-0.255,0.33-0.382,0.8-0.382,1.411v3.865h-1.863v-9.612h1.863v3.402   c0.271-0.414,0.581-0.703,0.937-0.867c0.354-0.162,0.727-0.244,1.117-0.244C85.809,84.807,86.208,84.882,86.565,85.035z"></path>		<path fill="#656464" d="M92.451,87.789c0.348-0.043,0.596-0.099,0.744-0.163c0.27-0.113,0.402-0.29,0.402-0.529   c0-0.292-0.104-0.494-0.309-0.605c-0.206-0.111-0.509-0.167-0.905-0.167c-0.447,0-0.763,0.109-0.949,0.327   c-0.133,0.162-0.221,0.38-0.265,0.654h-1.8c0.039-0.623,0.215-1.137,0.524-1.537c0.495-0.628,1.347-0.942,2.551-0.942   c0.784,0,1.48,0.155,2.091,0.465c0.607,0.311,0.913,0.895,0.913,1.754v3.271c0,0.228,0.005,0.502,0.014,0.824   c0.013,0.245,0.05,0.41,0.11,0.498c0.062,0.088,0.152,0.159,0.274,0.217v0.273h-2.028c-0.057-0.145-0.097-0.279-0.117-0.404   c-0.021-0.127-0.039-0.271-0.054-0.433c-0.259,0.278-0.557,0.517-0.895,0.713c-0.404,0.231-0.86,0.347-1.369,0.347   c-0.649,0-1.187-0.185-1.609-0.553c-0.424-0.369-0.636-0.893-0.636-1.566c0-0.877,0.341-1.513,1.022-1.904   c0.373-0.215,0.923-0.366,1.646-0.458L92.451,87.789z M93.592,88.66c-0.119,0.073-0.24,0.134-0.361,0.18   c-0.122,0.046-0.289,0.089-0.501,0.128l-0.425,0.078c-0.396,0.07-0.684,0.155-0.857,0.255c-0.293,0.171-0.439,0.435-0.439,0.792   c0,0.318,0.09,0.549,0.27,0.689c0.18,0.143,0.397,0.214,0.654,0.214c0.407,0,0.783-0.118,1.126-0.354   c0.344-0.234,0.521-0.664,0.535-1.289L93.592,88.66L93.592,88.66z"></path>		<path fill="#656464" d="M101.043,84.828c0.022,0.003,0.077,0.006,0.16,0.01v1.911c-0.118-0.013-0.224-0.021-0.314-0.025   c-0.092-0.004-0.166-0.008-0.223-0.008c-0.75,0-1.254,0.245-1.513,0.732c-0.144,0.275-0.216,0.699-0.216,1.271v3.408H97.06v-7.133   h1.78v1.243c0.288-0.476,0.539-0.8,0.752-0.975c0.35-0.292,0.803-0.438,1.361-0.438C100.988,84.825,101.019,84.826,101.043,84.828   z"></path>		<path fill="#656464" d="M111.195,85.022c0.306,0.122,0.582,0.336,0.831,0.642c0.2,0.248,0.336,0.554,0.405,0.916   c0.044,0.239,0.065,0.591,0.065,1.054l-0.014,4.495h-1.911v-4.541c0-0.271-0.044-0.492-0.131-0.668   c-0.166-0.331-0.471-0.497-0.916-0.497c-0.515,0-0.87,0.215-1.065,0.643c-0.102,0.227-0.15,0.498-0.15,0.816v4.247h-1.879v-4.248   c0-0.423-0.043-0.729-0.131-0.923c-0.157-0.344-0.464-0.517-0.923-0.517c-0.532,0-0.891,0.173-1.073,0.517   c-0.1,0.196-0.15,0.488-0.15,0.877v4.293h-1.891v-7.119h1.813v1.04c0.23-0.37,0.448-0.635,0.653-0.792   c0.362-0.278,0.831-0.419,1.407-0.419c0.545,0,0.985,0.12,1.321,0.36c0.271,0.223,0.476,0.508,0.615,0.857   c0.243-0.419,0.548-0.728,0.909-0.924c0.385-0.195,0.813-0.295,1.282-0.295C110.581,84.838,110.891,84.899,111.195,85.022z"></path>		<path fill="#656464" d="M117.037,87.789c0.348-0.043,0.596-0.099,0.745-0.163c0.269-0.113,0.401-0.29,0.401-0.529   c0-0.292-0.104-0.494-0.309-0.605c-0.206-0.111-0.508-0.167-0.905-0.167c-0.447,0-0.763,0.109-0.949,0.327   c-0.133,0.162-0.221,0.38-0.265,0.654h-1.8c0.039-0.623,0.215-1.137,0.524-1.537c0.495-0.628,1.347-0.942,2.552-0.942   c0.783,0,1.479,0.155,2.09,0.465c0.607,0.311,0.913,0.895,0.913,1.754v3.271c0,0.228,0.005,0.502,0.014,0.824   c0.013,0.245,0.05,0.41,0.11,0.498c0.062,0.088,0.152,0.159,0.274,0.217v0.273h-2.027c-0.058-0.145-0.098-0.279-0.118-0.404   c-0.021-0.127-0.039-0.271-0.054-0.433c-0.259,0.278-0.557,0.517-0.895,0.713c-0.404,0.231-0.86,0.347-1.369,0.347   c-0.649,0-1.187-0.185-1.609-0.553c-0.424-0.369-0.636-0.893-0.636-1.566c0-0.877,0.341-1.513,1.022-1.904   c0.373-0.215,0.923-0.366,1.646-0.458L117.037,87.789z M118.178,88.66c-0.119,0.073-0.24,0.134-0.361,0.18   c-0.122,0.046-0.289,0.089-0.501,0.128l-0.425,0.078c-0.396,0.07-0.684,0.155-0.856,0.255c-0.293,0.171-0.44,0.435-0.44,0.792   c0,0.318,0.09,0.549,0.27,0.689c0.18,0.143,0.397,0.214,0.654,0.214c0.407,0,0.783-0.118,1.126-0.354   c0.344-0.234,0.521-0.664,0.535-1.289L118.178,88.66L118.178,88.66z"></path>		<path fill="#656464" d="M125.933,87.554c-0.034-0.266-0.124-0.506-0.269-0.72c-0.21-0.288-0.536-0.432-0.979-0.432   c-0.63,0-1.061,0.312-1.292,0.936c-0.123,0.331-0.184,0.771-0.184,1.317c0,0.523,0.061,0.943,0.184,1.261   c0.224,0.594,0.644,0.892,1.259,0.892c0.438,0,0.748-0.119,0.933-0.354c0.184-0.236,0.296-0.541,0.335-0.916h1.904   c-0.045,0.565-0.249,1.104-0.616,1.608c-0.585,0.816-1.451,1.225-2.602,1.225c-1.147,0-1.992-0.34-2.533-1.021   c-0.542-0.681-0.813-1.563-0.813-2.646c0-1.225,0.299-2.176,0.897-2.855c0.598-0.682,1.423-1.021,2.476-1.021   c0.896,0,1.628,0.2,2.198,0.602c0.568,0.401,0.906,1.11,1.012,2.127H125.933L125.933,87.554z"></path>		<path fill="#656464" d="M129.399,93.496l0.236,0.013c0.183,0.01,0.357,0.002,0.523-0.02c0.165-0.021,0.305-0.072,0.419-0.15   c0.107-0.074,0.21-0.229,0.304-0.465s0.135-0.379,0.121-0.432l-2.621-7.447h2.075l1.557,5.262l1.473-5.262h1.983l-2.445,7.016   c-0.473,1.352-0.847,2.19-1.122,2.516c-0.274,0.326-0.824,0.488-1.65,0.488c-0.165,0-0.299-0.002-0.399-0.004   c-0.1-0.002-0.251-0.01-0.452-0.021L129.399,93.496L129.399,93.496z"></path>	</g>	<g>		<path fill="#5B2C81" d="M38.229,101.551h5.016v16.681h-3.247V106.95c0-0.324,0.004-0.779,0.011-1.364   c0.008-0.584,0.012-1.035,0.012-1.353l-3.161,13.998h-3.387l-3.139-13.998c0,0.316,0.004,0.769,0.012,1.353   c0.007,0.585,0.011,1.04,0.011,1.364v11.281h-3.247v-16.681h5.071l3.036,13.115L38.229,101.551z"></path>		<path fill="#5B2C81" d="M56.496,116.722c-1.041,1.285-2.621,1.928-4.741,1.928s-3.7-0.643-4.741-1.928s-1.562-2.832-1.562-4.642   c0-1.778,0.521-3.319,1.562-4.624s2.621-1.956,4.741-1.956s3.7,0.651,4.741,1.956s1.562,2.846,1.562,4.624   C58.058,113.89,57.537,115.437,56.496,116.722z M53.916,114.938c0.506-0.67,0.759-1.623,0.759-2.858s-0.253-2.187-0.759-2.853   c-0.505-0.668-1.229-1-2.173-1c-0.942,0-1.669,0.332-2.179,1c-0.51,0.666-0.764,1.617-0.764,2.853s0.254,2.188,0.764,2.858   s1.235,1.006,2.179,1.006S53.411,115.608,53.916,114.938z"></path>		<path fill="#5B2C81" d="M70.897,107.379c0.922,1.169,1.385,2.679,1.385,4.526c0,1.916-0.455,3.504-1.365,4.764   s-2.181,1.891-3.812,1.891c-1.022,0-1.846-0.203-2.468-0.611c-0.372-0.241-0.772-0.663-1.206-1.268v1.551h-3.18v-16.656h3.226   v5.929c0.409-0.573,0.861-1.011,1.354-1.313c0.585-0.377,1.329-0.564,2.231-0.564C68.698,105.625,69.976,106.21,70.897,107.379z    M68.202,114.894c0.464-0.672,0.695-1.555,0.695-2.648c0-0.875-0.113-1.6-0.342-2.172c-0.434-1.088-1.231-1.631-2.396-1.631   c-1.18,0-1.989,0.533-2.431,1.597c-0.229,0.565-0.343,1.298-0.343,2.194c0,1.058,0.235,1.933,0.707,2.625   c0.472,0.695,1.19,1.041,2.157,1.041C67.088,115.899,67.737,115.563,68.202,114.894z"></path>		<path fill="#5B2C81" d="M77.838,104.426h-3.271v-2.978h3.271V104.426z M74.566,105.897h3.271v12.334h-3.271V105.897   L74.566,105.897z"></path>		<path fill="#5B2C81" d="M84.254,118.229h-3.226v-16.68h3.226V118.229z"></path>		<path fill="#5B2C81" d="M95.438,106.147c0.86,0.385,1.571,0.992,2.132,1.824c0.506,0.732,0.833,1.582,0.982,2.549   c0.087,0.567,0.122,1.383,0.106,2.449h-8.983c0.05,1.236,0.479,2.104,1.29,2.602c0.492,0.311,1.085,0.465,1.778,0.465   c0.733,0,1.331-0.188,1.791-0.564c0.25-0.205,0.472-0.486,0.662-0.85h3.294c-0.088,0.73-0.485,1.475-1.195,2.229   c-1.105,1.199-2.652,1.799-4.642,1.799c-1.642,0-3.09-0.506-4.345-1.518s-1.882-2.658-1.882-4.938   c0-2.137,0.566-3.774,1.699-4.916c1.132-1.139,2.603-1.709,4.41-1.709C93.609,105.567,94.577,105.761,95.438,106.147z    M90.612,108.933c-0.455,0.471-0.741,1.105-0.858,1.909h5.557c-0.059-0.856-0.345-1.506-0.858-1.948   c-0.515-0.443-1.151-0.666-1.913-0.666C91.711,108.228,91.068,108.463,90.612,108.933z"></path>		<path fill="#5B2C81" d="M110.909,101.551h3.942l5.901,16.681h-3.779l-1.101-3.43h-6.144l-1.131,3.43h-3.646L110.909,101.551z    M110.68,111.929h4.271l-2.107-6.564L110.68,111.929z"></path>		<path fill="#5B2C81" d="M132.987,107.222c1.007,1.063,1.51,2.625,1.51,4.684c0,2.174-0.492,3.828-1.476,4.969   c-0.982,1.139-2.25,1.708-3.799,1.708c-0.987,0-1.807-0.245-2.46-0.735c-0.355-0.271-0.706-0.666-1.048-1.188v6.427h-3.191   v-17.188h3.09v1.822c0.35-0.535,0.722-0.957,1.116-1.268c0.722-0.551,1.579-0.826,2.573-0.826   C130.754,105.625,131.98,106.155,132.987,107.222z M130.513,109.54c-0.438-0.73-1.147-1.098-2.132-1.098   c-1.182,0-1.993,0.555-2.437,1.662c-0.229,0.59-0.343,1.336-0.343,2.242c0,1.434,0.385,2.439,1.154,3.021   c0.457,0.339,0.998,0.509,1.623,0.509c0.907,0,1.599-0.348,2.075-1.041c0.476-0.693,0.715-1.618,0.715-2.771   C131.17,111.112,130.951,110.272,130.513,109.54z"></path>		<path fill="#5B2C81" d="M147.145,107.222c1.006,1.063,1.509,2.625,1.509,4.684c0,2.174-0.491,3.828-1.475,4.969   c-0.983,1.139-2.25,1.708-3.799,1.708c-0.987,0-1.808-0.245-2.46-0.735c-0.356-0.271-0.706-0.666-1.048-1.188v6.427h-3.191   v-17.188h3.09v1.822c0.35-0.535,0.722-0.957,1.116-1.268c0.721-0.551,1.579-0.826,2.573-0.826   C144.91,105.625,146.138,106.155,147.145,107.222z M144.669,109.54c-0.438-0.73-1.148-1.098-2.132-1.098   c-1.183,0-1.993,0.555-2.437,1.662c-0.229,0.59-0.343,1.336-0.343,2.242c0,1.434,0.385,2.439,1.154,3.021   c0.457,0.339,0.998,0.509,1.623,0.509c0.906,0,1.599-0.348,2.074-1.041c0.477-0.693,0.716-1.618,0.716-2.771   C145.326,111.112,145.106,110.272,144.669,109.54z"></path>		<path fill="#5B2C81" d="M33.604,135.078c0.498-0.718,1.313-1.427,2.444-2.128l0.351-0.215c-0.481-0.545-0.855-1.101-1.12-1.666   c-0.265-0.566-0.396-1.155-0.396-1.769c0-1.216,0.412-2.166,1.237-2.85c0.823-0.685,1.894-1.025,3.206-1.025   c1.198,0,2.188,0.351,2.972,1.05c0.783,0.7,1.174,1.596,1.174,2.686c0,0.982-0.234,1.781-0.704,2.395   c-0.469,0.613-1.157,1.182-2.064,1.703l2.396,2.906c0.275-0.393,0.487-0.818,0.636-1.277c0.149-0.461,0.229-0.947,0.235-1.461   h2.863c-0.053,1.014-0.298,2.039-0.734,3.076c-0.24,0.583-0.632,1.227-1.173,1.93l3.027,3.617H44.05l-1.16-1.412   c-0.563,0.522-1.09,0.909-1.578,1.159c-0.869,0.447-1.872,0.671-3.009,0.671c-1.708,0-3.042-0.496-4.003-1.492   s-1.441-2.103-1.441-3.316C32.856,136.655,33.105,135.795,33.604,135.078z M36.757,139.071c0.456,0.461,1.042,0.691,1.756,0.691   c0.537,0,1.046-0.121,1.525-0.363c0.479-0.242,0.869-0.512,1.169-0.812l-3.12-3.8c-0.817,0.537-1.357,1.009-1.62,1.417   c-0.264,0.407-0.396,0.856-0.396,1.349C36.07,138.104,36.3,138.612,36.757,139.071z M38.177,130.14   c0.141,0.219,0.445,0.607,0.915,1.168c0.47-0.318,0.806-0.586,1.01-0.806c0.392-0.407,0.587-0.851,0.587-1.327   c0-0.348-0.117-0.656-0.353-0.93c-0.234-0.271-0.591-0.408-1.068-0.408c-0.297,0-0.574,0.079-0.833,0.238   c-0.391,0.234-0.587,0.604-0.587,1.111C37.848,129.487,37.957,129.806,38.177,130.14z"></path>		<path fill="#5B2C81" d="M58.811,125.37l2.202,9.552l0.479,2.658l0.48-2.604l1.884-9.605h3.679l1.98,9.55l0.508,2.66l0.516-2.558   l2.224-9.652h3.549l-4.691,16.68h-3.338l-2.016-9.755l-0.588-3.226l-0.589,3.226l-2.015,9.755h-3.236l-4.729-16.68H58.811z"></path>		<path fill="#5B2C81" d="M85.785,129.965c0.859,0.386,1.57,0.994,2.132,1.825c0.505,0.732,0.833,1.583,0.981,2.55   c0.087,0.565,0.122,1.384,0.106,2.448h-8.983c0.05,1.236,0.48,2.104,1.29,2.604c0.492,0.31,1.085,0.463,1.778,0.463   c0.734,0,1.331-0.188,1.791-0.565c0.25-0.203,0.472-0.485,0.663-0.849h3.293c-0.087,0.731-0.485,1.476-1.195,2.229   c-1.104,1.199-2.651,1.799-4.641,1.799c-1.643,0-3.09-0.506-4.345-1.518c-1.256-1.012-1.883-2.657-1.883-4.938   c0-2.138,0.566-3.775,1.699-4.916c1.132-1.141,2.604-1.711,4.41-1.711C83.958,129.388,84.925,129.58,85.785,129.965z    M80.961,132.751c-0.456,0.471-0.742,1.105-0.859,1.909h5.558c-0.06-0.856-0.346-1.507-0.859-1.949s-1.151-0.665-1.913-0.665   C82.059,132.046,81.417,132.28,80.961,132.751z"></path>		<path fill="#5B2C81" d="M101.169,131.196c0.922,1.171,1.384,2.68,1.384,4.527c0,1.916-0.455,3.504-1.365,4.764   c-0.91,1.261-2.18,1.891-3.811,1.891c-1.023,0-1.847-0.204-2.468-0.611c-0.372-0.24-0.773-0.664-1.206-1.268v1.551h-3.181v-16.656   h3.227v5.93c0.409-0.573,0.86-1.012,1.354-1.313c0.585-0.377,1.329-0.565,2.232-0.565   C98.969,129.442,100.246,130.028,101.169,131.196z M98.473,138.711c0.464-0.671,0.696-1.554,0.696-2.647   c0-0.875-0.114-1.6-0.342-2.172c-0.435-1.086-1.232-1.629-2.396-1.629c-1.179,0-1.989,0.53-2.43,1.594   c-0.229,0.566-0.343,1.299-0.343,2.195c0,1.057,0.234,1.932,0.706,2.627c0.473,0.693,1.19,1.041,2.157,1.041   C97.357,139.72,98.009,139.383,98.473,138.711z"></path>		<path fill="#5B2C81" d="M107.294,138.11c0.067,0.574,0.216,0.981,0.442,1.224c0.401,0.431,1.146,0.646,2.229,0.646   c0.637,0,1.143-0.094,1.518-0.283c0.376-0.188,0.563-0.471,0.563-0.848c0-0.363-0.151-0.639-0.454-0.826   c-0.302-0.188-1.427-0.515-3.373-0.975c-1.402-0.347-2.39-0.779-2.963-1.301c-0.573-0.514-0.859-1.253-0.859-2.219   c0-1.139,0.447-2.117,1.345-2.938c0.896-0.818,2.155-1.229,3.78-1.229c1.542,0,2.8,0.309,3.771,0.924   c0.972,0.613,1.528,1.677,1.673,3.186h-3.225c-0.047-0.414-0.163-0.742-0.353-0.984c-0.355-0.438-0.961-0.656-1.815-0.656   c-0.703,0-1.204,0.109-1.504,0.328c-0.299,0.219-0.447,0.477-0.447,0.77c0,0.37,0.159,0.639,0.477,0.805   c0.317,0.174,1.44,0.472,3.367,0.894c1.285,0.302,2.248,0.759,2.89,1.369c0.634,0.619,0.95,1.394,0.95,2.319   c0,1.223-0.456,2.221-1.366,2.994c-0.911,0.772-2.318,1.158-4.224,1.158c-1.943,0-3.377-0.408-4.303-1.228   c-0.928-0.818-1.391-1.861-1.391-3.13H107.294L107.294,138.11z"></path>		<path fill="#5B2C81" d="M120.997,128.244h-3.271v-2.976h3.271V128.244z M117.727,129.715h3.271v12.335h-3.271V129.715z"></path>		<path fill="#5B2C81" d="M122.853,132.126v-2.298h1.722v-3.438h3.189v3.438h2.003v2.298h-2.003v6.518   c0,0.506,0.064,0.82,0.192,0.944c0.129,0.125,0.521,0.188,1.177,0.188c0.099,0,0.202-0.002,0.312-0.006   c0.11-0.004,0.218-0.01,0.322-0.019v2.411l-1.526,0.057c-1.524,0.053-2.565-0.212-3.123-0.793   c-0.362-0.369-0.543-0.938-0.543-1.707v-7.594H122.853z"></path>		<path fill="#5B2C81" d="M139.875,129.965c0.859,0.386,1.57,0.994,2.132,1.825c0.505,0.732,0.833,1.583,0.981,2.55   c0.088,0.565,0.122,1.384,0.106,2.448h-8.983c0.051,1.236,0.48,2.104,1.29,2.604c0.492,0.31,1.085,0.463,1.778,0.463   c0.734,0,1.331-0.188,1.791-0.565c0.25-0.203,0.472-0.485,0.663-0.849h3.293c-0.087,0.731-0.485,1.476-1.195,2.229   c-1.104,1.199-2.651,1.799-4.641,1.799c-1.643,0-3.09-0.506-4.345-1.518c-1.256-1.012-1.883-2.657-1.883-4.938   c0-2.138,0.566-3.775,1.699-4.916c1.132-1.141,2.604-1.711,4.41-1.711C138.048,129.388,139.015,129.58,139.875,129.965z    M135.051,132.751c-0.456,0.471-0.742,1.105-0.859,1.909h5.558c-0.06-0.856-0.346-1.507-0.859-1.949s-1.15-0.665-1.913-0.665   C136.147,132.046,135.507,132.28,135.051,132.751z"></path>	</g>	<circle fill="#FFFFFF" cx="87.409" cy="35.957" r="33.313"></circle>	<g id="RKSckA_7_">		<g>			<g>				<path fill="#5B2C81" d="M100.462,22.599c-0.862,0-1.604,0-2.345,0c-0.537-1.952-0.537-1.952-2.66-1.952     c-5.353,0-10.706-0.003-16.062,0.002c-1.519,0-1.838,0.305-1.841,1.808c-0.005,9.031-0.005,18.062,0,27.092     c0,1.558,0.309,1.845,1.927,1.845c5.476,0.003,10.948,0.002,16.422,0c1.796,0,1.818-0.021,2.261-1.812c0.69,0,1.397,0,2.396,0     c-0.123,1.688-0.063,3.415-0.43,5.044c-0.418,1.875-2.288,3.147-4.338,3.164c-5.354,0.044-10.71,0.057-16.063-0.001     c-2.729-0.029-4.668-2.034-4.672-4.75c-0.021-11.348-0.021-22.697-0.004-34.044c0.008-2.838,2.004-4.778,4.871-4.787     c5.195-0.016,10.391-0.014,15.586,0c2.908,0.008,4.883,1.963,4.947,4.873C100.483,20.229,100.462,21.379,100.462,22.599z      M87.521,55.746c0,0,0-0.002,0-0.004c0.754,0,1.547,0.134,2.25-0.049c0.447-0.117,1.065-0.705,1.066-1.085     c0.002-0.407-0.604-1.13-0.994-1.165c-1.533-0.138-3.098-0.15-4.631-0.002c-0.421,0.039-0.986,0.755-1.07,1.235     c-0.051,0.283,0.668,0.909,1.13,1.023C85.982,55.876,86.769,55.746,87.521,55.746z"></path>				<path fill="#5B2C81" d="M110.087,36.141c-0.01,6.022-4.914,10.911-10.908,10.875c-6.024-0.036-10.908-4.936-10.892-10.919     c0.018-6,4.938-10.892,10.932-10.863C105.265,25.259,110.092,30.106,110.087,36.141z M100.533,38.73     c0.813,0,1.566,0.062,2.299-0.031c0.279-0.036,0.724-0.419,0.733-0.661c0.068-1.483,0.036-2.975,0.036-4.484     c-1.117,0-2.089,0-3.068,0C100.533,35.3,100.533,36.957,100.533,38.73z M98.076,38.581c0-1.658,0-3.333,0-5.057     c-0.281-0.027-0.476-0.064-0.664-0.06c-2.783,0.085-2.375-0.597-2.565,2.447c-0.172,2.733,0.248,3.041,2.976,2.785     C97.894,38.69,97.959,38.638,98.076,38.581z M92.713,38.615c0-1.735,0-3.386,0-5.033c-1.814-0.286-1.924-0.222-2.084,1.521     c-0.063,0.667-0.066,1.35-0.006,2.018C90.78,38.846,90.875,38.896,92.713,38.615z M105.873,33.568c0,1.731,0,3.411,0,5.083     c1.664,0.17,1.705,0.175,1.898-1.417c0.098-0.775-0.005-1.574-0.009-2.362C107.756,33.595,107.112,33.2,105.873,33.568z      M98.129,27.896c-1.292,0.873-1.879,1.986-2.352,3.265c0.868,0,1.596,0,2.352,0C98.129,30.087,98.129,29.105,98.129,27.896z      M103.044,31.196c-0.836-1.225-1.532-2.244-2.23-3.263c-0.099,0.058-0.2,0.116-0.302,0.176c0,1.025,0,2.053,0,3.086     C101.305,31.196,102,31.196,103.044,31.196z M95.694,41.059c0.81,1.19,1.466,2.157,2.125,3.127     c0.084-0.048,0.168-0.095,0.255-0.14c0-0.985,0-1.971,0-2.987C97.349,41.059,96.722,41.059,95.694,41.059z M100.494,44.063     c0.097,0.044,0.19,0.089,0.286,0.133c0.655-0.974,1.308-1.948,2.072-3.09c-0.979,0-1.662,0-2.358,0     C100.494,42.145,100.494,43.103,100.494,44.063z M92.037,41.175c0.727,0.757,1.366,1.421,2.208,2.297     C93.771,41.105,93.617,40.941,92.037,41.175z M92.045,31.159c1.494,0.199,1.631,0.052,2.039-2.149     C93.34,29.796,92.735,30.432,92.045,31.159z M104.424,42.772c0.076,0.063,0.154,0.132,0.229,0.198     c0.543-0.577,1.088-1.154,1.72-1.828C104.615,40.728,104.932,42.155,104.424,42.772z"></path>			</g>		</g>	</g></g></svg>